<?xml version="1.0" encoding="UTF-8"?>
<svg width="13px" height="14px" viewBox="0 0 13 14" version="1.1" xmlns="http://www.w3.org/2000/svg" xmlns:xlink="http://www.w3.org/1999/xlink">
    <!-- Generator: Sketch 52.2 (67145) - http://www.bohemiancoding.com/sketch -->
    <title>工商信息</title>
    <desc>Created with Sketch.</desc>
    <g id="Page-1" stroke="none" stroke-width="1" fill="none" fill-rule="evenodd">
        <g id="工商信息" transform="translate(-1228.000000, -548.000000)">
            <g transform="translate(1228.000000, 548.000000)" id="Group">
                <g>
                    <path d="M0.5,11.5 L12.5,11.5 L12.5,9.66837797 C12.5,9.41273421 12.3071609,9.19826529 12.0529549,9.1711901 L10.7803784,9.03564941 C9.34601208,8.88287666 8.23917716,7.70692181 8.17007562,6.27071346 L8.15772291,6.0139745 L8.35932252,5.85452206 C9.07495931,5.28849897 9.5,4.42975782 9.5,3.5 C9.5,1.84314575 8.15685425,0.5 6.5,0.5 C4.84314575,0.5 3.5,1.84314575 3.5,3.5 C3.5,4.42975782 3.92504069,5.28849897 4.64067748,5.85452206 L4.84227709,6.0139745 L4.82992438,6.27071346 C4.76082284,7.70692181 3.65398792,8.88287666 2.21962159,9.03564941 L0.947045079,9.1711901 C0.692839124,9.19826529 0.5,9.41273421 0.5,9.66837797 L0.5,11.5 Z" id="Combined-Shape" stroke="#666666"></path>
                    <rect id="Rectangle" fill="#666666" x="0" y="13" width="13" height="1"></rect>
                </g>
            </g>
        </g>
    </g>
</svg>