<?xml version="1.0" encoding="UTF-8"?>
<svg width="14px" height="14px" viewBox="0 0 14 14" version="1.1" xmlns="http://www.w3.org/2000/svg" xmlns:xlink="http://www.w3.org/1999/xlink">
    <!-- Generator: Sketch 52.2 (67145) - http://www.bohemiancoding.com/sketch -->
    <title>注册资本</title>
    <desc>Created with Sketch.</desc>
    <g id="Page-1" stroke="none" stroke-width="1" fill="none" fill-rule="evenodd">
        <g id="工商信息" transform="translate(-1228.000000, -668.000000)">
            <g id="注册资本" transform="translate(1228.000000, 668.000000)">
                <g id="Group-2">
                    <circle id="Oval" stroke="#666666" cx="7" cy="7" r="6.5"></circle>
                    <path d="M6.5,7 L4.5,7 C4.22385763,7 4,6.77614237 4,6.5 C4,6.22385763 4.22385763,6 4.5,6 L6.17157288,6 L4.52512627,4.35355339 C4.32986412,4.15829124 4.32986412,3.84170876 4.52512627,3.64644661 C4.72038841,3.45118446 5.0369709,3.45118446 5.23223305,3.64644661 L7,5.41421356 L8.76776695,3.64644661 C8.9630291,3.45118446 9.27961159,3.45118446 9.47487373,3.64644661 C9.67013588,3.84170876 9.67013588,4.15829124 9.47487373,4.35355339 L7.82842712,6 L9.5,6 C9.77614237,6 10,6.22385763 10,6.5 C10,6.77614237 9.77614237,7 9.5,7 L7.5,7 L7.5,8 L9.5,8 C9.77614237,8 10,8.22385763 10,8.5 C10,8.77614237 9.77614237,9 9.5,9 L7.5,9 L7.5,10.5 C7.5,10.7761424 7.27614237,11 7,11 C6.72385763,11 6.5,10.7761424 6.5,10.5 L6.5,9 L4.5,9 C4.22385763,9 4,8.77614237 4,8.5 C4,8.22385763 4.22385763,8 4.5,8 L6.5,8 L6.5,7 Z" id="Combined-Shape" fill="#666666"></path>
                </g>
            </g>
        </g>
    </g>
</svg>