<?xml version="1.0" encoding="UTF-8"?>
<svg width="13px" height="14px" viewBox="0 0 13 14" version="1.1" xmlns="http://www.w3.org/2000/svg" xmlns:xlink="http://www.w3.org/1999/xlink">
    <!-- Generator: Sketch 52.2 (67145) - http://www.bohemiancoding.com/sketch -->
    <title>法人icon</title>
    <desc>Created with Sketch.</desc>
    <g id="Page-1" stroke="none" stroke-width="1" fill="none" fill-rule="evenodd">
        <g id="工商信息" transform="translate(-1228.000000, -727.000000)" stroke="#666666">
            <g id="法人" transform="translate(1228.000000, 727.000000)">
                <g id="法人icon">
                    <path d="M6.49996861,7.49998605 C8.43301758,7.49998605 9.99996164,5.93303539 9.99996164,3.99999302 C9.99996164,2.06699719 8.43299087,0.5 6.49996861,0.5 C4.5670295,0.5 3,2.06703611 3,3.99999302 C3,5.93299647 4.56700279,7.49998605 6.49996861,7.49998605 Z M2,10.5 C1.17157288,10.5 0.5,11.1715729 0.5,12 C0.5,12.8284271 1.17157288,13.5 2,13.5 L11,13.5 C11.8284271,13.5 12.5,12.8284271 12.5,12 C12.5,11.1715729 11.8284271,10.5 11,10.5 L2,10.5 Z" id="Combined-Shape"></path>
                </g>
            </g>
        </g>
    </g>
</svg>